<svg width="64" height="64" viewBox="0 0 64 64" fill="none" xmlns="http://www.w3.org/2000/svg">
<rect width="64" height="64" rx="10" fill="url(#paint0_linear_65_588)"/>
<path fill-rule="evenodd" clip-rule="evenodd" d="M41.3333 42.6666C40.596 42.6666 40 42.0706 40 41.3333C40 40.596 40.596 40 41.3333 40C42.0706 40 42.6666 40.596 42.6666 41.3333C42.6666 42.0706 42.0706 42.6666 41.3333 42.6666ZM41.3333 37.3333C39.128 37.3333 37.3333 39.128 37.3333 41.3333C37.3333 43.5386 39.128 45.3333 41.3333 45.3333C43.5386 45.3333 45.3333 43.5386 45.3333 41.3333C45.3333 39.128 43.5386 37.3333 41.3333 37.3333ZM32 42.6666C31.2626 42.6666 30.6666 42.0706 30.6666 41.3333C30.6666 40.596 31.2626 40 32 40C32.7373 40 33.3333 40.596 33.3333 41.3333C33.3333 42.0706 32.7373 42.6666 32 42.6666ZM32 37.3333C29.7946 37.3333 28 39.128 28 41.3333C28 43.5386 29.7946 45.3333 32 45.3333C34.2053 45.3333 36 43.5386 36 41.3333C36 39.128 34.2053 37.3333 32 37.3333ZM22.6666 42.6666C21.9293 42.6666 21.3333 42.0706 21.3333 41.3333C21.3333 40.596 21.9293 40 22.6666 40C23.404 40 24 40.596 24 41.3333C24 42.0706 23.404 42.6666 22.6666 42.6666ZM22.6666 37.3333C20.4613 37.3333 18.6666 39.128 18.6666 41.3333C18.6666 43.5386 20.4613 45.3333 22.6666 45.3333C24.872 45.3333 26.6666 43.5386 26.6666 41.3333C26.6666 39.128 24.872 37.3333 22.6666 37.3333ZM41.3333 33.3333C40.596 33.3333 40 32.7373 40 32C40 31.2626 40.596 30.6666 41.3333 30.6666C42.0706 30.6666 42.6666 31.2626 42.6666 32C42.6666 32.7373 42.0706 33.3333 41.3333 33.3333ZM41.3333 28C39.128 28 37.3333 29.7946 37.3333 32C37.3333 34.2053 39.128 36 41.3333 36C43.5386 36 45.3333 34.2053 45.3333 32C45.3333 29.7946 43.5386 28 41.3333 28ZM32 33.3333C31.2626 33.3333 30.6666 32.7373 30.6666 32C30.6666 31.2626 31.2626 30.6666 32 30.6666C32.7373 30.6666 33.3333 31.2626 33.3333 32C33.3333 32.7373 32.7373 33.3333 32 33.3333ZM32 28C29.7946 28 28 29.7946 28 32C28 34.2053 29.7946 36 32 36C34.2053 36 36 34.2053 36 32C36 29.7946 34.2053 28 32 28ZM22.6666 33.3333C21.9293 33.3333 21.3333 32.7373 21.3333 32C21.3333 31.2626 21.9293 30.6666 22.6666 30.6666C23.404 30.6666 24 31.2626 24 32C24 32.7373 23.404 33.3333 22.6666 33.3333ZM22.6666 28C20.4613 28 18.6666 29.7946 18.6666 32C18.6666 34.2053 20.4613 36 22.6666 36C24.872 36 26.6666 34.2053 26.6666 32C26.6666 29.7946 24.872 28 22.6666 28ZM41.3333 21.3333C42.0706 21.3333 42.6666 21.9293 42.6666 22.6666C42.6666 23.404 42.0706 24 41.3333 24C40.596 24 40 23.404 40 22.6666C40 21.9293 40.596 21.3333 41.3333 21.3333ZM41.3333 26.6666C43.5386 26.6666 45.3333 24.872 45.3333 22.6666C45.3333 20.4613 43.5386 18.6666 41.3333 18.6666C39.128 18.6666 37.3333 20.4613 37.3333 22.6666C37.3333 24.872 39.128 26.6666 41.3333 26.6666ZM32 24C31.2626 24 30.6666 23.4026 30.6666 22.6666C30.6666 21.9293 31.2626 21.3333 32 21.3333C32.7373 21.3333 33.3333 21.9293 33.3333 22.6666C33.3333 23.4026 32.7373 24 32 24ZM32 18.6666C29.7946 18.6666 28 20.4613 28 22.6666C28 24.872 29.7946 26.6666 32 26.6666C34.2053 26.6666 36 24.872 36 22.6666C36 20.4613 34.2053 18.6666 32 18.6666ZM22.6666 24C21.9293 24 21.3333 23.404 21.3333 22.6666C21.3333 21.9293 21.9293 21.3333 22.6666 21.3333C23.404 21.3333 24 21.9293 24 22.6666C24 23.404 23.404 24 22.6666 24ZM22.6666 18.6666C20.4613 18.6666 18.6666 20.4613 18.6666 22.6666C18.6666 24.872 20.4613 26.6666 22.6666 26.6666C24.872 26.6666 26.6666 24.872 26.6666 22.6666C26.6666 20.4613 24.872 18.6666 22.6666 18.6666Z" fill="#03133D"/>
<mask id="mask0_65_588" style="mask-type:luminance" maskUnits="userSpaceOnUse" x="18" y="18" width="28" height="28">
<path fill-rule="evenodd" clip-rule="evenodd" d="M41.3333 42.6666C40.596 42.6666 40 42.0706 40 41.3333C40 40.596 40.596 40 41.3333 40C42.0706 40 42.6666 40.596 42.6666 41.3333C42.6666 42.0706 42.0706 42.6666 41.3333 42.6666ZM41.3333 37.3333C39.128 37.3333 37.3333 39.128 37.3333 41.3333C37.3333 43.5386 39.128 45.3333 41.3333 45.3333C43.5386 45.3333 45.3333 43.5386 45.3333 41.3333C45.3333 39.128 43.5386 37.3333 41.3333 37.3333ZM32 42.6666C31.2626 42.6666 30.6666 42.0706 30.6666 41.3333C30.6666 40.596 31.2626 40 32 40C32.7373 40 33.3333 40.596 33.3333 41.3333C33.3333 42.0706 32.7373 42.6666 32 42.6666ZM32 37.3333C29.7946 37.3333 28 39.128 28 41.3333C28 43.5386 29.7946 45.3333 32 45.3333C34.2053 45.3333 36 43.5386 36 41.3333C36 39.128 34.2053 37.3333 32 37.3333ZM22.6666 42.6666C21.9293 42.6666 21.3333 42.0706 21.3333 41.3333C21.3333 40.596 21.9293 40 22.6666 40C23.404 40 24 40.596 24 41.3333C24 42.0706 23.404 42.6666 22.6666 42.6666ZM22.6666 37.3333C20.4613 37.3333 18.6666 39.128 18.6666 41.3333C18.6666 43.5386 20.4613 45.3333 22.6666 45.3333C24.872 45.3333 26.6666 43.5386 26.6666 41.3333C26.6666 39.128 24.872 37.3333 22.6666 37.3333ZM41.3333 33.3333C40.596 33.3333 40 32.7373 40 32C40 31.2626 40.596 30.6666 41.3333 30.6666C42.0706 30.6666 42.6666 31.2626 42.6666 32C42.6666 32.7373 42.0706 33.3333 41.3333 33.3333ZM41.3333 28C39.128 28 37.3333 29.7946 37.3333 32C37.3333 34.2053 39.128 36 41.3333 36C43.5386 36 45.3333 34.2053 45.3333 32C45.3333 29.7946 43.5386 28 41.3333 28ZM32 33.3333C31.2626 33.3333 30.6666 32.7373 30.6666 32C30.6666 31.2626 31.2626 30.6666 32 30.6666C32.7373 30.6666 33.3333 31.2626 33.3333 32C33.3333 32.7373 32.7373 33.3333 32 33.3333ZM32 28C29.7946 28 28 29.7946 28 32C28 34.2053 29.7946 36 32 36C34.2053 36 36 34.2053 36 32C36 29.7946 34.2053 28 32 28ZM22.6666 33.3333C21.9293 33.3333 21.3333 32.7373 21.3333 32C21.3333 31.2626 21.9293 30.6666 22.6666 30.6666C23.404 30.6666 24 31.2626 24 32C24 32.7373 23.404 33.3333 22.6666 33.3333ZM22.6666 28C20.4613 28 18.6666 29.7946 18.6666 32C18.6666 34.2053 20.4613 36 22.6666 36C24.872 36 26.6666 34.2053 26.6666 32C26.6666 29.7946 24.872 28 22.6666 28ZM41.3333 21.3333C42.0706 21.3333 42.6666 21.9293 42.6666 22.6666C42.6666 23.404 42.0706 24 41.3333 24C40.596 24 40 23.404 40 22.6666C40 21.9293 40.596 21.3333 41.3333 21.3333ZM41.3333 26.6666C43.5386 26.6666 45.3333 24.872 45.3333 22.6666C45.3333 20.4613 43.5386 18.6666 41.3333 18.6666C39.128 18.6666 37.3333 20.4613 37.3333 22.6666C37.3333 24.872 39.128 26.6666 41.3333 26.6666ZM32 24C31.2626 24 30.6666 23.4026 30.6666 22.6666C30.6666 21.9293 31.2626 21.3333 32 21.3333C32.7373 21.3333 33.3333 21.9293 33.3333 22.6666C33.3333 23.4026 32.7373 24 32 24ZM32 18.6666C29.7946 18.6666 28 20.4613 28 22.6666C28 24.872 29.7946 26.6666 32 26.6666C34.2053 26.6666 36 24.872 36 22.6666C36 20.4613 34.2053 18.6666 32 18.6666ZM22.6666 24C21.9293 24 21.3333 23.404 21.3333 22.6666C21.3333 21.9293 21.9293 21.3333 22.6666 21.3333C23.404 21.3333 24 21.9293 24 22.6666C24 23.404 23.404 24 22.6666 24ZM22.6666 18.6666C20.4613 18.6666 18.6666 20.4613 18.6666 22.6666C18.6666 24.872 20.4613 26.6666 22.6666 26.6666C24.872 26.6666 26.6666 24.872 26.6666 22.6666C26.6666 20.4613 24.872 18.6666 22.6666 18.6666Z" fill="white"/>
</mask>
<g mask="url(#mask0_65_588)">
<rect x="16" y="16" width="32" height="32" fill="white"/>
</g>
<defs>
<linearGradient id="paint0_linear_65_588" x1="-0.415645" y1="71.8441" x2="70.9528" y2="16.8239" gradientUnits="userSpaceOnUse">
<stop stop-color="#80D0C7"/>
<stop offset="1" stop-color="#0093E9"/>
</linearGradient>
</defs>
</svg>
