<svg width="64" height="64" viewBox="0 0 64 64" fill="none" xmlns="http://www.w3.org/2000/svg">
<rect width="64" height="64" rx="10" fill="url(#paint0_linear_65_463)"/>
<path fill-rule="evenodd" clip-rule="evenodd" d="M39.6803 36.7199L32.0003 41.1293L24.3203 36.7199L26.5789 35.7586L31.3363 38.4893C31.5416 38.6079 31.7709 38.6666 32.0003 38.6666C32.2296 38.6666 32.4576 38.6079 32.6643 38.4893L37.4216 35.7573L39.6803 36.7199ZM31.3363 33.1559C31.5416 33.2746 31.7709 33.3333 32.0003 33.3333C32.2296 33.3333 32.4576 33.2746 32.6643 33.1559L37.4216 30.424L39.6803 31.3866L32.0003 35.7959L24.3203 31.3866L26.5789 30.424L31.3363 33.1559ZM32.0003 22.7827L39.6803 26.0533L32.0003 30.4627L24.3203 26.0533L32.0003 22.7827ZM43.9977 31.1306C43.9671 30.6253 43.6537 30.1813 43.1884 29.9826L40.3191 28.7613L43.3311 27.032C43.7697 26.7813 44.0271 26.3026 43.9977 25.7973C43.9671 25.2933 43.6537 24.848 43.1884 24.6493L32.5217 20.1066C32.1884 19.964 31.8111 19.964 31.4777 20.1066L20.8111 24.6493C20.3457 24.848 20.0324 25.2933 20.0031 25.7973C19.9724 26.3026 20.2311 26.7813 20.6697 27.032L23.6804 28.7613L20.8111 29.9826C20.3457 30.1813 20.0324 30.6253 20.0031 31.1306C19.9724 31.636 20.2311 32.1146 20.6697 32.3653L23.6804 34.0946L20.8111 35.316C20.3457 35.5146 20.0324 35.9586 20.0031 36.464C19.9724 36.9693 20.2311 37.448 20.6697 37.6986L31.3364 43.8226C31.5417 43.9413 31.7711 44 32.0004 44C32.2297 44 32.4577 43.9413 32.6644 43.8226L43.3311 37.6986C43.7697 37.448 44.0271 36.9693 43.9977 36.464C43.9671 35.96 43.6537 35.5146 43.1897 35.316L40.3204 34.0933L43.3311 32.3653C43.7697 32.1146 44.0271 31.636 43.9977 31.1306V31.1306Z" fill="#03133D"/>
<mask id="mask0_65_463" style="mask-type:luminance" maskUnits="userSpaceOnUse" x="20" y="19" width="24" height="25">
<path fill-rule="evenodd" clip-rule="evenodd" d="M39.6803 36.7199L32.0003 41.1293L24.3203 36.7199L26.5789 35.7586L31.3363 38.4893C31.5416 38.6079 31.7709 38.6666 32.0003 38.6666C32.2296 38.6666 32.4576 38.6079 32.6643 38.4893L37.4216 35.7573L39.6803 36.7199ZM31.3363 33.1559C31.5416 33.2746 31.7709 33.3333 32.0003 33.3333C32.2296 33.3333 32.4576 33.2746 32.6643 33.1559L37.4216 30.424L39.6803 31.3866L32.0003 35.7959L24.3203 31.3866L26.5789 30.424L31.3363 33.1559ZM32.0003 22.7827L39.6803 26.0533L32.0003 30.4627L24.3203 26.0533L32.0003 22.7827ZM43.9977 31.1306C43.9671 30.6253 43.6537 30.1813 43.1884 29.9826L40.3191 28.7613L43.3311 27.032C43.7697 26.7813 44.0271 26.3026 43.9977 25.7973C43.9671 25.2933 43.6537 24.848 43.1884 24.6493L32.5217 20.1066C32.1884 19.964 31.8111 19.964 31.4777 20.1066L20.8111 24.6493C20.3457 24.848 20.0324 25.2933 20.0031 25.7973C19.9724 26.3026 20.2311 26.7813 20.6697 27.032L23.6804 28.7613L20.8111 29.9826C20.3457 30.1813 20.0324 30.6253 20.0031 31.1306C19.9724 31.636 20.2311 32.1146 20.6697 32.3653L23.6804 34.0946L20.8111 35.316C20.3457 35.5146 20.0324 35.9586 20.0031 36.464C19.9724 36.9693 20.2311 37.448 20.6697 37.6986L31.3364 43.8226C31.5417 43.9413 31.7711 44 32.0004 44C32.2297 44 32.4577 43.9413 32.6644 43.8226L43.3311 37.6986C43.7697 37.448 44.0271 36.9693 43.9977 36.464C43.9671 35.96 43.6537 35.5146 43.1897 35.316L40.3204 34.0933L43.3311 32.3653C43.7697 32.1146 44.0271 31.636 43.9977 31.1306V31.1306Z" fill="white"/>
</mask>
<g mask="url(#mask0_65_463)">
<rect x="16" y="16" width="32" height="32" fill="white"/>
</g>
<defs>
<linearGradient id="paint0_linear_65_463" x1="-0.415645" y1="71.8441" x2="70.9528" y2="16.8239" gradientUnits="userSpaceOnUse">
<stop stop-color="#80D0C7"/>
<stop offset="1" stop-color="#0093E9"/>
</linearGradient>
</defs>
</svg>
