<svg width="64" height="64" viewBox="0 0 64 64" fill="none" xmlns="http://www.w3.org/2000/svg">
<rect width="64" height="64" rx="10" fill="url(#paint0_linear_65_595)"/>
<path fill-rule="evenodd" clip-rule="evenodd" d="M43.9896 25.2839C43.987 25.1879 43.959 25.0972 43.9336 25.0052C43.9136 24.9279 43.9043 24.8492 43.871 24.7785C43.8403 24.7092 43.7883 24.6532 43.743 24.5892C43.687 24.5079 43.6363 24.4265 43.5643 24.3599C43.5523 24.3479 43.547 24.3319 43.5336 24.3212C43.4856 24.2799 43.427 24.2652 43.375 24.2319C43.295 24.1799 43.2163 24.1265 43.1256 24.0919C43.0363 24.0599 42.9483 24.0519 42.8563 24.0385C42.7923 24.0292 42.735 23.9999 42.667 23.9999H36.0003C35.263 23.9999 34.667 24.5972 34.667 25.3332C34.667 26.0692 35.263 26.6665 36.0003 26.6665H39.7683L34.387 32.9439L28.6856 29.5239C28.1216 29.1825 27.3963 29.3079 26.975 29.8132L20.3083 37.8132C19.8376 38.3785 19.9136 39.2199 20.479 39.6905C20.7296 39.8985 21.031 39.9999 21.3323 39.9999C21.715 39.9999 22.0936 39.8372 22.3576 39.5199L28.2936 32.3972L33.9803 35.8105C34.539 36.1452 35.2563 36.0279 35.679 35.5345L41.3336 28.9372V31.9999C41.3336 32.7359 41.9296 33.3332 42.667 33.3332C43.4043 33.3332 44.0003 32.7359 44.0003 31.9999V25.3332C44.0003 25.3159 43.991 25.3012 43.9896 25.2839Z" fill="#03133D"/>
<mask id="mask0_65_595" style="mask-type:luminance" maskUnits="userSpaceOnUse" x="19" y="23" width="26" height="17">
<path fill-rule="evenodd" clip-rule="evenodd" d="M43.9896 25.2839C43.987 25.1879 43.959 25.0972 43.9336 25.0052C43.9136 24.9279 43.9043 24.8492 43.871 24.7785C43.8403 24.7092 43.7883 24.6532 43.743 24.5892C43.687 24.5079 43.6363 24.4265 43.5643 24.3599C43.5523 24.3479 43.547 24.3319 43.5336 24.3212C43.4856 24.2799 43.427 24.2652 43.375 24.2319C43.295 24.1799 43.2163 24.1265 43.1256 24.0919C43.0363 24.0599 42.9483 24.0519 42.8563 24.0385C42.7923 24.0292 42.735 23.9999 42.667 23.9999H36.0003C35.263 23.9999 34.667 24.5972 34.667 25.3332C34.667 26.0692 35.263 26.6665 36.0003 26.6665H39.7683L34.387 32.9439L28.6856 29.5239C28.1216 29.1825 27.3963 29.3079 26.975 29.8132L20.3083 37.8132C19.8376 38.3785 19.9136 39.2199 20.479 39.6905C20.7296 39.8985 21.031 39.9999 21.3323 39.9999C21.715 39.9999 22.0936 39.8372 22.3576 39.5199L28.2936 32.3972L33.9803 35.8105C34.539 36.1452 35.2563 36.0279 35.679 35.5345L41.3336 28.9372V31.9999C41.3336 32.7359 41.9296 33.3332 42.667 33.3332C43.4043 33.3332 44.0003 32.7359 44.0003 31.9999V25.3332C44.0003 25.3159 43.991 25.3012 43.9896 25.2839Z" fill="white"/>
</mask>
<g mask="url(#mask0_65_595)">
<rect x="16" y="16" width="32" height="32" fill="white"/>
</g>
<defs>
<linearGradient id="paint0_linear_65_595" x1="-0.415645" y1="71.8441" x2="70.9528" y2="16.8239" gradientUnits="userSpaceOnUse">
<stop stop-color="#80D0C7"/>
<stop offset="1" stop-color="#0093E9"/>
</linearGradient>
</defs>
</svg>
