<svg width="64" height="64" viewBox="0 0 64 64" fill="none" xmlns="http://www.w3.org/2000/svg">
<rect width="64" height="64" rx="10" fill="url(#paint0_linear_65_469)"/>
<path fill-rule="evenodd" clip-rule="evenodd" d="M43.7617 34.7435C43.0643 34.4955 42.3043 34.8595 42.0603 35.5555C40.5563 39.8088 36.5123 42.6661 32.0003 42.6661C26.119 42.6661 21.3337 37.8821 21.3337 31.9994C21.3337 27.4874 24.191 23.4435 28.4443 21.9395C29.139 21.6955 29.503 20.9341 29.2577 20.2395C29.0123 19.5461 28.251 19.1808 27.5563 19.4275C22.239 21.3061 18.667 26.3581 18.667 31.9994C18.667 39.3514 24.6483 45.3328 32.0003 45.3328C37.6417 45.3328 42.6937 41.7621 44.5737 36.4434C44.819 35.7501 44.4563 34.9888 43.7617 34.7435ZM34.6667 29.3333V21.4279C38.748 22.0146 41.9853 25.2506 42.572 29.3333H34.6667ZM33.3333 18.6666C32.5973 18.6666 31.9999 19.2626 31.9999 20V30.6666C31.9999 31.404 32.5973 32 33.3333 32H43.9999C44.7359 32 45.3333 31.404 45.3333 30.6666C45.3333 24.0493 39.9493 18.6666 33.3333 18.6666Z" fill="#03133D"/>
<mask id="mask0_65_469" style="mask-type:luminance" maskUnits="userSpaceOnUse" x="18" y="18" width="28" height="28">
<path fill-rule="evenodd" clip-rule="evenodd" d="M43.7617 34.7435C43.0643 34.4955 42.3043 34.8595 42.0603 35.5555C40.5563 39.8088 36.5123 42.6661 32.0003 42.6661C26.119 42.6661 21.3337 37.8821 21.3337 31.9994C21.3337 27.4874 24.191 23.4435 28.4443 21.9395C29.139 21.6955 29.503 20.9341 29.2577 20.2395C29.0123 19.5461 28.251 19.1808 27.5563 19.4275C22.239 21.3061 18.667 26.3581 18.667 31.9994C18.667 39.3514 24.6483 45.3328 32.0003 45.3328C37.6417 45.3328 42.6937 41.7621 44.5737 36.4434C44.819 35.7501 44.4563 34.9888 43.7617 34.7435ZM34.6667 29.3333V21.4279C38.748 22.0146 41.9853 25.2506 42.572 29.3333H34.6667ZM33.3333 18.6666C32.5973 18.6666 31.9999 19.2626 31.9999 20V30.6666C31.9999 31.404 32.5973 32 33.3333 32H43.9999C44.7359 32 45.3333 31.404 45.3333 30.6666C45.3333 24.0493 39.9493 18.6666 33.3333 18.6666Z" fill="white"/>
</mask>
<g mask="url(#mask0_65_469)">
<rect x="16" y="16" width="32" height="32" fill="white"/>
</g>
<defs>
<linearGradient id="paint0_linear_65_469" x1="-0.415645" y1="71.8441" x2="70.9528" y2="16.8239" gradientUnits="userSpaceOnUse">
<stop stop-color="#80D0C7"/>
<stop offset="1" stop-color="#0093E9"/>
</linearGradient>
</defs>
</svg>
